<svg width="66" height="22" viewBox="0 0 66 22" fill="none" xmlns="http://www.w3.org/2000/svg">
<path d="M11.096 5.864V8.936C11.096 12.424 8.696 14.6 5.4 14.6H4.024V21H0.024V0.199999H5.4C8.696 0.199999 11.096 2.376 11.096 5.864ZM5.4 10.6C6.488 10.6 7.096 9.864 7.096 8.936V5.864C7.096 4.936 6.488 4.2 5.4 4.2H4.024V10.6H5.4ZM23.5648 21H19.4048L17.8688 14.6H16.4928V21H12.4928V0.199999H17.8688C21.1648 0.199999 23.5648 2.376 23.5648 5.864V8.936C23.5648 11.048 22.6688 12.68 21.2608 13.64L21.9328 14.504L23.5648 21ZM16.4928 10.6H17.8688C18.9568 10.6 19.5648 9.864 19.5648 8.936V5.864C19.5648 4.936 18.9568 4.2 17.8688 4.2H16.4928V10.6ZM42.2903 19.08H43.2503V21H41.7463C40.4023 21 39.3143 19.912 39.3143 18.568V0.199999H41.2343V18.056C41.2343 18.6 41.6503 19.08 42.2903 19.08ZM47.683 2.504H45.379V0.199999H47.683V2.504ZM47.491 21H45.571V5H47.491V21ZM49.1028 6.792V5H51.0228V3.88C51.0228 1.576 52.2708 0.231998 54.5748 0.231998H55.6948V2.152H55.0548C53.5508 2.152 52.9427 2.632 52.9427 4.2V5H55.6948V6.792H52.9427V21H51.0228V6.792H49.1028ZM65.0338 8.968V13.064H58.7618V17.032C58.7618 18.216 59.7538 19.208 60.9698 19.208C62.1858 19.208 63.1138 18.216 63.1138 17.032V15.624H65.0338V17.032C65.0338 19.272 63.2418 21.128 60.9698 21.128C58.6978 21.128 56.8418 19.272 56.8418 17.032V8.968C56.8418 6.728 58.6978 4.872 60.9698 4.872C63.2418 4.872 65.0338 6.728 65.0338 8.968ZM58.7618 8.968V11.4H63.1138V8.968C63.1138 7.784 62.1858 6.792 60.9698 6.792C59.7538 6.792 58.7618 7.784 58.7618 8.968Z" fill="white"/>
<path d="M37.5338 12.52V16.36H36.2538V21H32.2538V16.36H24.5738V13.416L27.4858 0.199999H31.4218L28.7018 12.52H32.2538V5H36.2538V12.52H37.5338Z" fill="#EB1425"/>
</svg>
